<svg xmlns="http://www.w3.org/2000/svg" version="1.1" xmlns:xlink="http://www.w3.org/1999/xlink" xmlns:svgjs="http://svgjs.dev/svgjs" width="1500" height="1500" viewBox="0 0 1500 1500"><rect width="1500" height="1500" fill="#0a1627"></rect><g transform="matrix(0.6666666666666666,0,0,0.6666666666666666,249.2552973907351,315.6859400788709)"><svg viewBox="0 0 284 247" data-background-color="#0a1627" preserveAspectRatio="xMidYMid meet" height="1304" width="1500" xmlns="http://www.w3.org/2000/svg" xmlns:xlink="http://www.w3.org/1999/xlink"><g id="tight-bounds" transform="matrix(1,0,0,1,0.21149554103124046,-0.09997365579206985)"><svg viewBox="0 0 283.5770089179375 247.2" height="247.2" width="283.5770089179375"><g><svg viewBox="0 0 283.5770089179375 247.2" height="247.2" width="283.5770089179375"><g><svg viewBox="0 0 283.5770089179375 247.2" height="247.2" width="283.5770089179375"><g id="textblocktransform"><svg viewBox="0 0 283.5770089179375 247.2" height="247.2" width="283.5770089179375" id="textblock"><g><svg viewBox="0 0 283.5770089179375 247.2" height="247.2" width="283.5770089179375"><path d="M282.913 53.02C281.58 27.36 277.78 20.227 277.78 20.227 266.115-6.202 251.557-0.506 238.479 3.292 215.389 3.446 192.392 9.091 169.355 12.119 121.001 12.581 72.234 4.986 24.121 23.717 19.601 29.464-4.689 24.846 0.804 56.304 2.244 69.39 7.496 83.913 7.336 95.922 8.056 98.026 9.056 93.202 9.483 96.23 10.976 104.39 13.416 100.541 15.415 105.365 12.629 118.246 14.629 128.971 16.535 140.21 13.176 143.135 8.869 141.749 6.936 151.449 6.736 158.479 5.657 157.145 4.47 156.837 3.604 156.632 1.857 157.402 2.15 159.608 3.15 167.152-1.143 171.514 1.55 178.904-0.303 186.91 2.83 193.838 2.404 202.511 2.35 204.255 2.644 205.744 3.11 206.154 5.177 208.361 2.164 212.672 2.484 217.342 23.681 249.262 46.678 227.195 68.395 241.872 74.034 231.608 69.795 245.516 72.048 243.36 73.808 240.846 75.087 251.263 77.074 245.362 77.38 243.668 76.914 239.665 78.007 240.435 78.58 240.846 79.087 240.743 79.167 238.382 79.287 234.841 78.234 237.048 77.954 235.201 80.98 225.861 80.233 248.081 83.073 247.158 82.94 244.438 82.113 240.538 83.806 241.051 85.486 237.151 85.539 233.918 87.032 242.693 87.086 244.592 87.352 245.926 87.779 246.85 92.445 237.305 97.084 250.237 101.977 245.926 104.977 241.205 107.856 248.492 110.896 246.696 111.962 245.259 113.042 242.693 114.069 247.004 126.641 247.928 140.039 244.079 151.957 247.158 183.806 241.41 217.842 249.518 251.424 241.923 259.343 238.998 267.568 234.841 275.287 231.506 275.287 231.506 281.54 222.371 281.54 181.316S282.873 145.393 283.073 112.703C283.273 80.013 284.206 78.679 282.873 53.02Z" opacity="1" fill="#fe0039" data-fill-palette-color="tertiary"></path><g transform="matrix(1,0,0,1,55.76831999999999,26.230666666666668)"><svg width="172.04036891793754" viewBox="0.25 -31.85 40.55 45.900000000000006" height="194.73866666666666" data-palette-color="#0a1627"><path d="M18.05 14.05L18.05 14.05Q16.15 14.05 14.88 13.08 13.6 12.1 13.6 10.1L13.6 10.1Q13.6 9.8 13.78 8.83 13.95 7.85 14.28 7 14.6 6.15 15 6.15L15 6.15Q15.2 6.15 15.2 6.45L15.2 6.45Q15.2 6.8 15.1 7.2 15 7.6 15 8L15 8Q15 9 15.35 10.28 15.7 11.55 16.48 12.48 17.25 13.4 18.5 13.4L18.5 13.4Q20.35 13.4 22.23 11.98 24.1 10.55 25.85 8.3 27.6 6.05 29.13 3.5 30.65 0.95 31.83-1.35 33-3.65 33.65-5.1L33.65-5.1Q29.15-1.8 24.15 0.1 19.15 2 13.5 2L13.5 2Q11.3 2 8.97 1.6 6.65 1.2 4.67 0.23 2.7-0.75 1.48-2.5 0.25-4.25 0.25-6.95L0.25-6.95Q0.25-9.5 1.3-12 2.35-14.5 4.05-16.78 5.75-19.05 7.78-20.95 9.8-22.85 11.75-24.25L11.75-24.25Q13.55-25.55 15.53-26.6 17.5-27.65 19.55-28.45L19.55-28.45Q22.15-29.45 24.8-30.03 27.45-30.6 30.2-30.8L30.2-30.8Q30.3-30.85 30.45-30.85 30.6-30.85 30.7-30.85L30.7-30.85Q31.65-30.85 32.9-30.63 34.15-30.4 35.27-29.88 36.4-29.35 36.95-28.5L36.95-28.5Q37.25-28.9 37.77-29.75 38.3-30.6 38.3-31L38.3-31Q38.3-31.25 38.5-31.55 38.7-31.85 38.95-31.85L38.95-31.85Q39.2-31.85 39.25-31.63 39.3-31.4 39.3-31.25L39.3-31.25Q39.3-30.95 38.98-30.15 38.65-29.35 38.25-28.58 37.85-27.8 37.7-27.45L37.7-27.45Q37.95-27.1 38.25-26.4 38.55-25.7 38.55-25.3L38.55-25.3Q38.55-25 38.4-24.53 38.25-24.05 37.95-23.9L37.95-23.9Q37.95-23.9 37.65-24.53 37.35-25.15 37.25-25.3L37.25-25.3Q36.75-24.3 36.1-22.85 35.45-21.4 34.7-20.55L34.7-20.55Q34.5-20.35 34.23-20.3 33.95-20.25 33.7-20.25L33.7-20.25Q33.55-20.25 33.02-20.33 32.5-20.4 32.02-20.55 31.55-20.7 31.55-20.85L31.55-20.85Q31.55-21.25 32.1-22.05 32.65-22.85 33.45-23.8 34.25-24.75 34.95-25.63 35.65-26.5 35.95-26.95L35.95-26.95Q35.05-28.55 33.6-29.18 32.15-29.8 30.4-29.8L30.4-29.8Q30.25-29.8 30.1-29.8 29.95-29.8 29.8-29.75L29.8-29.75Q24.95-29.45 20.65-27.55L20.65-27.55Q18.85-26.75 17.18-25.73 15.5-24.7 13.9-23.5L13.9-23.5Q12.15-22.1 10.35-20.23 8.55-18.35 7.08-16.15 5.6-13.95 4.7-11.58 3.8-9.2 3.8-6.85L3.8-6.85Q3.8-3.9 5.28-2.15 6.75-0.4 9.08 0.35 11.4 1.1 13.95 1.1L13.95 1.1Q17.4 1.1 21.08 0.03 24.75-1.05 28.18-2.83 31.6-4.6 34.35-6.6L34.35-6.6Q34.9-7.95 35.43-9.35 35.95-10.75 36.55-12.1L36.55-12.1 36.7-12.65Q35-12.6 32.4-12.55 29.8-12.5 27.03-12.25 24.25-12 21.88-11.43 19.5-10.85 18.15-9.8L18.15-9.8Q17.8-9.45 17.57-9.13 17.35-8.8 17.1-8.35L17.1-8.35Q17.05-8.2 16.9-8 16.75-7.8 16.5-7.8L16.5-7.8Q16.35-7.8 16.35-8.05L16.35-8.05Q16.35-8.25 16.4-8.4L16.4-8.4Q17.3-10.95 18.8-12.1 20.3-13.25 22.3-13.58 24.3-13.9 26.7-13.95L26.7-13.95Q27.45-13.95 28.2-13.98 28.95-14 29.7-14L29.7-14Q31.6-14 33.5-13.93 35.4-13.85 37.25-13.6L37.25-13.6Q37.7-14.05 38.45-14.23 39.2-14.4 39.8-14.4L39.8-14.4Q40.05-14.4 40.43-14.33 40.8-14.25 40.8-13.9L40.8-13.9Q40.8-13.7 40.68-13.55 40.55-13.4 40.45-13.25L40.45-13.25Q40-12.6 39.63-11.85 39.25-11.1 38.85-10.4L38.85-10.4Q38.35-9.5 37.88-8.58 37.4-7.65 36.85-6.75L36.85-6.75Q35.3-3.95 33.73-0.9 32.15 2.15 30.28 4.98 28.4 7.8 26 10.08 23.6 12.35 20.4 13.65L20.4 13.65Q19.85 13.85 19.25 13.95 18.65 14.05 18.05 14.05Z" opacity="1" transform="matrix(1,0,0,1,0,0)" fill="#0a1627" class="wordmark-text-0" data-fill-palette-color="quaternary" id="text-0"></path></svg></g></svg></g></svg></g></svg></g><g></g></svg></g><defs></defs></svg><rect width="283.5770089179375" height="247.2" fill="none" stroke="none" visibility="hidden"></rect></g></svg></g></svg>